<?xml version="1.0" encoding="UTF-8"?>
<svg width="12px" height="12px" viewBox="0 0 12 12" version="1.1" xmlns="http://www.w3.org/2000/svg" xmlns:xlink="http://www.w3.org/1999/xlink">
    <title>np_edit_1218875_1D1D1D</title>
    <g id="Approved-Screens" stroke="none" stroke-width="1" fill="none" fill-rule="evenodd">
        <g id="Affiliate-Admin-Dashboard-|-EVENTS-|-List-2" transform="translate(-967.000000, -452.000000)" fill="#1D1D1D" fill-rule="nonzero">
            <g id="Main-Area" transform="translate(162.000000, 220.000000)">
                <g id="Rectangle" transform="translate(17.000000, 88.000000)">
                    <g id="Players" transform="translate(-1.000000, 25.000000)">
                        <g id="Row-3" transform="translate(0.000000, 100.000000)">
                            <g id="np_edit_1218875_1D1D1D" transform="translate(789.000000, 19.000000)">
                                <path d="M10.8393067,10.2906778 C10.8393067,10.8511511 10.3836144,11.3233688 9.82355736,11.3233688 L1.69334809,11.3233688 C1.13268034,11.3233688 0.677598722,10.8505405 0.677598722,10.2906778 L0.677002309,2.16328821 C0.677002309,1.60281491 1.13269469,1.16397922 1.69275168,1.16397922 L6.43519561,1.16397922 L6.43579218,0.48724117 L1.69334825,0.48724117 C0.759304073,0.48724117 0,1.23016328 0,2.16382245 L0,10.2906014 C0,11.2243217 0.7598843,12 1.69334825,12 L9.82294675,12 C10.7569909,12 11.516295,11.2236959 11.516295,10.2906014 L11.516295,5.56659252 L10.8387267,5.56659252 L10.8387267,10.2906014 L10.8393067,10.2906778 Z" id="Path"></path>
                                <path d="M11.602764,0.384133864 C11.0910033,-0.128044621 10.1987203,-0.128044621 9.68633355,0.384133864 L5.14193044,4.92696089 C5.09838894,4.97048728 5.06737425,5.02474416 5.05305943,5.08376642 L4.57470763,6.99953223 C4.54607799,7.11460792 4.58007566,7.2368393 4.66357864,7.32150788 C4.72799611,7.38590301 4.81448056,7.42048479 4.90275454,7.42048479 C4.93019167,7.42048479 4.9576288,7.41750345 4.9850644,7.41034852 L6.90149486,6.93156734 C6.9611392,6.91666127 7.01541643,6.88565673 7.05835479,6.84272715 L11.6027579,2.29990013 C11.8586383,2.04410853 12,1.70425891 12,1.34233777 C12,0.97982133 11.8592368,0.639956447 11.6027579,0.384180113 L11.602764,0.384133864 Z M6.64624666,6.29704406 L5.36864671,6.616028 L5.68774132,5.33887114 L9.44715765,1.58075865 L10.4050522,2.53832101 L6.64624666,6.29704406 Z M11.1237709,1.82046214 L10.884595,2.05955509 L9.92670044,1.10199273 L10.1658763,0.862899782 C10.4217567,0.607108184 10.8685013,0.607108184 11.1237709,0.862899782 C11.2514118,0.990496409 11.322392,1.16042275 11.322392,1.34168096 C11.322392,1.52293918 11.2514149,1.69227633 11.1237709,1.82046214 L11.1237709,1.82046214 Z" id="Shape"></path>
                            </g>
                        </g>
                    </g>
                </g>
            </g>
        </g>
    </g>
</svg>