<?xml version="1.0" encoding="UTF-8"?>
<svg width="13px" height="13px" viewBox="0 0 13 13" version="1.1" xmlns="http://www.w3.org/2000/svg" xmlns:xlink="http://www.w3.org/1999/xlink">
    <title>np_add_3612531_FFFFFF</title>
    <g id="Approved-Screens" stroke="none" stroke-width="1" fill="none" fill-rule="evenodd">
        <g id="Affiliate-Admin-Dashboard-|-EVENTS-|-Grid-2" transform="translate(-906.000000, -69.000000)">
            <g id="HUD-Upper-window" transform="translate(162.000000, 50.000000)">
                <g id="Create-New-Event" transform="translate(736.250000, 15.500288)">
                    <g id="Group-16" transform="translate(8.750000, 2.499712)">
                        <g id="Group-4" transform="translate(0.000000, 2.000000)">
                            <path d="M3.07313218,5.97091476 L5.02783266,5.97091476 L5.02783266,7.92596953 C5.02783266,8.1108861 5.17804956,8.261124 5.36292639,8.261124 C5.54780323,8.261124 5.69802013,8.11087987 5.69802013,7.92596953 L5.69802013,5.97091476 L7.65272061,5.97091476 C7.83760367,5.97091476 7.98781434,5.82067064 7.98781434,5.6357603 C7.98781434,5.45084995 7.83759744,5.30060583 7.65272061,5.30060583 L5.69802013,5.30060583 L5.69802013,3.34679682 C5.69802013,3.16188025 5.54780323,3.01164235 5.36292639,3.01164235 C5.17804956,3.01164235 5.02783266,3.16188648 5.02783266,3.34679682 L5.02783266,5.30185158 L3.07313218,5.30185158 C2.88824912,5.30185158 2.73803844,5.45209571 2.73803844,5.63700605 C2.73925486,5.82192262 2.88825534,5.9703386 3.07313218,5.9703386 L3.07313218,5.97091476 Z" id="Path" fill="#FFFFFF" fill-rule="nonzero"></path>
                            <rect id="Rectangle" stroke="#FFFFFF" x="0" y="0" width="11" height="11" rx="3"></rect>
                        </g>
                    </g>
                </g>
            </g>
        </g>
    </g>
</svg>