<?xml version="1.0" encoding="UTF-8"?>
<svg width="18px" height="17px" viewBox="0 0 18 17" version="1.1" xmlns="http://www.w3.org/2000/svg" xmlns:xlink="http://www.w3.org/1999/xlink">
    <title>Affiliate Fee Icon</title>
    <g id="Approved-Screens" stroke="none" stroke-width="1" fill="none" fill-rule="evenodd">
        <g id="Affiliate-Admin-Dashboard-|-ACCOUNTS-OVERVIEW" transform="translate(-177.000000, -67.000000)" fill="#26A1FF" fill-rule="nonzero">
            <g id="Main-Area" transform="translate(151.000000, 42.000000)">
                <g id="HUD-Upper-window" transform="translate(26.111111, 21.000000)">
                    <g id="Affiliate-Fee-Icon" transform="translate(0.000000, 4.000000)">
                        <path d="M16.1707416,0.829246458 C15.6410873,0.296589583 14.9194225,-0.00223145898 14.1685928,1.25478642e-05 L2.83137007,1.25478642e-05 C2.0805786,1.25478642e-05 1.36042465,0.29884628 0.829221235,0.829246458 C0.298821048,1.36039249 0,2.08056555 0,2.83139525 L0,14.1686178 C0,14.9194092 0.298821048,15.6395632 0.829221235,16.1707666 C1.36036728,16.7011668 2.08054035,16.9999878 2.83137007,16.9999878 L14.1685928,16.9999878 C14.9193843,16.9999878 15.6395382,16.7011668 16.1707416,16.1707666 C16.7011418,15.6396205 16.9999754,14.9194475 16.9999754,14.1686178 L16.9999754,2.83139525 C17.0022041,2.0806038 16.7033794,1.35895815 16.1707416,0.829246458 Z M1.63092225,1.63083271 C1.94842798,1.31034355 2.38096786,1.13105093 2.83142744,1.13179447 L14.1686502,1.13179447 C14.6191289,1.13179447 15.0516688,1.31108941 15.3706662,1.62934099 C15.6889178,1.94833843 15.8682104,2.38087831 15.8682104,2.831357 L15.8682104,4.53164395 L1.13178837,4.53164395 L1.13178837,2.831357 C1.13104369,2.38087831 1.31033555,1.94833843 1.63082662,1.63085183 L1.63092225,1.63083271 Z M15.3692319,15.3691421 C15.0517261,15.6896312 14.6191863,15.8689239 14.1687267,15.8681803 L2.83150394,15.8681803 C1.89321541,15.8681803 1.13196282,15.1069254 1.13196282,14.1686369 L1.13196282,5.66873212 L15.8683849,5.66873212 L15.8683849,14.1686369 C15.8691295,14.6191156 15.6898377,15.0516555 15.3693466,15.3691421 L15.3692319,15.3691421 Z" id="Shape"></path>
                        <polygon id="Path" points="2.83137007 2.26882759 3.96316076 2.26882759 3.96316076 3.40061826 2.83137007 3.40061826"></polygon>
                        <polygon id="Path" points="5.10030633 2.26882759 6.23209702 2.26882759 6.23209702 3.40061826 5.10030633 3.40061826"></polygon>
                        <path d="M8.92521574,10.2003508 L8.07507225,10.2003508 C7.68361189,10.2003508 7.36612529,9.88284511 7.36612529,9.49065804 C7.36612529,9.09919769 7.68363102,8.78171109 8.07507225,8.78171109 L10.1996182,8.78171109 L10.2003652,7.64992042 L9.06857449,7.64992042 L9.06857449,6.79977694 L7.93156279,6.79977694 L7.93156279,7.6663484 C7.49229107,7.69697828 7.07918173,7.8859747 6.76840784,8.19749444 C6.42776141,8.5448727 6.2372618,9.01177939 6.2372618,9.49886247 C6.2372618,10.5141082 7.05977032,11.3366167 8.07501602,11.3366167 L8.92515951,11.3366167 C9.31661986,11.3366167 9.63410647,11.6541224 9.63410647,12.0463095 C9.63410647,12.4377698 9.31660074,12.7552564 8.92515951,12.7552564 L6.80061358,12.7552564 L6.80061358,13.8870471 L7.93240427,13.8870471 L7.93240427,14.7371906 L9.06419497,14.7371906 L9.06344777,13.8706191 C10.0488018,13.7959148 10.7988474,12.9539796 10.7600055,11.966388 C10.7219055,10.9780314 9.90837026,10.1981133 8.92001367,10.2003508 L8.92521574,10.2003508 Z" id="Path"></path>
                    </g>
                </g>
            </g>
        </g>
    </g>
</svg>