<?xml version="1.0" encoding="UTF-8"?>
<svg width="18px" height="18px" viewBox="0 0 18 18" version="1.1" xmlns="http://www.w3.org/2000/svg" xmlns:xlink="http://www.w3.org/1999/xlink">
    <title>Competitions icon</title>
    <g id="Approved-Screens" stroke="none" stroke-width="1" fill="none" fill-rule="evenodd">
        <g id="HQ-Admin-|-Leagues" transform="translate(-183.000000, -76.000000)" fill="#26A1FF" fill-rule="nonzero">
            <g id="HUD-Upper-window" transform="translate(183.000000, 72.000000)">
                <g id="Competitions-icon" transform="translate(0.000000, 4.000000)">
                    <path d="M17.9214998,6.68764303 C18.1872768,3.48484775 17.6946967,0.817000548 17.6734316,0.703625659 C17.6344505,0.501673236 17.4749698,0.345778228 17.2765262,0.303276249 C15.2706795,-0.111258627 11.9183482,0.00211626255 11.2981777,0.0552664107 C7.79343469,0.349333664 5.09302617,1.42285782 3.26789621,3.2475405 C1.44276625,5.07224132 0.368989618,7.77890808 0.0785001983,11.2864551 C-0.187276755,14.4892503 0.305303305,17.1570975 0.326568365,17.2704724 C0.365549468,17.4724249 0.521473883,17.6353945 0.723473802,17.6708218 C3.62238039,18.1632861 6.08165184,17.9719818 6.70182226,17.9188317 C10.2065653,17.6247644 12.9069738,16.5512403 14.7321038,14.7265576 C16.5572338,12.9018568 17.6273815,10.19519 17.9214998,6.68764303 Z M16.7449541,1.23149914 C16.847725,1.91528578 17.0497231,3.55214708 16.9859279,5.50074398 L12.4781708,0.990600179 C12.726239,0.983514158 15.5222314,0.976428318 16.7449723,1.23151728 L16.7449541,1.23149914 Z M1.25139886,16.7426352 C1.14862802,16.0588486 0.946629915,14.4185407 1.01042509,12.4733904 L5.51818221,16.9835342 C4.9653451,17.1181673 1.97442902,16.9551905 1.25138071,16.7426171 L1.25139886,16.7426352 Z M6.84708511,16.9020693 L1.09191091,11.1411738 C1.38958546,7.98790063 2.35705493,5.57165499 3.97303614,3.95610816 C5.58546108,2.34052506 7.99888201,1.37333748 11.1492679,1.07566037 L16.9044421,6.83655596 C16.6067676,9.98982908 15.6392981,12.4060747 14.0269457,14.0216216 C12.4109826,15.6336674 9.99765244,16.6043922 6.84726656,16.9020693 L6.84708511,16.9020693 Z" id="Shape"></path>
                    <path d="M11.4434587,8.50526926 C11.6489968,8.71075898 11.9679364,8.68595981 12.1522094,8.50526926 C12.3471149,8.31040957 12.3471149,7.99154496 12.1522094,7.79668527 L11.5249627,7.16958608 L12.5172354,6.17400943 C12.7121409,5.97914974 12.7121409,5.66028513 12.5172354,5.46542544 C12.3223298,5.27056575 12.0069284,5.27056575 11.8084847,5.46542544 L10.8162121,6.46100209 L10.1889654,5.8339029 C9.99405987,5.63904321 9.6786584,5.63904321 9.48021475,5.8339029 C9.28530924,6.02876259 9.28530924,6.3476272 9.48021475,6.54248689 L10.1074614,7.16958608 L8.99824908,8.28207491 L8.37100241,7.65497572 C8.17609689,7.46011603 7.86069542,7.46011603 7.66225177,7.65497572 C7.46734625,7.84983541 7.46734625,8.16870002 7.66225177,8.36355971 L8.28949844,8.9906589 L7.1802861,10.0996104 L6.55303942,9.47251125 C6.3581339,9.27765156 6.04273243,9.27765156 5.84428879,9.47251125 C5.64938327,9.66737094 5.64938327,9.98623555 5.84428879,10.1810952 L6.47153546,10.8081944 L5.47926279,11.8037711 C5.28435727,11.9986308 5.28435727,12.3174954 5.47926279,12.5123551 C5.67416831,12.7072148 6.01083484,12.6895029 6.18801343,12.5123551 L7.1802861,11.5203157 L7.80753277,12.1474149 C8.01307082,12.3529046 8.33201042,12.3281055 8.51628341,12.1474149 C8.71118892,11.9525552 8.71118892,11.6336906 8.51628341,11.4388309 L7.88548046,10.8081763 L8.99823094,9.69568746 L9.62547761,10.3227866 C9.83101566,10.5282764 10.1499553,10.5034772 10.3342282,10.3227866 C10.5291338,10.127927 10.5291338,9.80906234 10.3342282,9.61420265 L9.70698157,8.98710347 L10.819732,7.87461463 L11.4434587,8.50526926 Z" id="Path"></path>
                </g>
            </g>
        </g>
    </g>
</svg>