<?xml version="1.0" encoding="UTF-8"?>
<svg width="8px" height="12px" viewBox="0 0 8 12" version="1.1" xmlns="http://www.w3.org/2000/svg" xmlns:xlink="http://www.w3.org/1999/xlink">
    <title>Shape</title>
    <g id="Approved-Screens" stroke="none" stroke-width="1" fill="none" fill-rule="evenodd" opacity="0.499158587">
        <g id="Affiliate-Admin-Dashboard-|-ACCOUNTS-OVERVIEW" transform="translate(-220.000000, -135.000000)" fill="#8096AB" fill-rule="nonzero">
            <g id="Main-Area" transform="translate(151.000000, 42.000000)">
                <g transform="translate(42.000000, 70.000000)" id="Rectangle">
                    <g id="info" transform="translate(0.000000, 20.000000)">
                        <g id="Locked-Fees" transform="translate(27.000000, 0.000000)">
                            <path d="M6.97105477,7.85898819 L6.64075947,7.85898819 L6.64136123,5.76193084 C6.64136123,4.23874563 5.45673393,3 4.00023103,3 C2.54372812,3 1.35910083,4.23881006 1.35910083,5.76193084 L1.35910083,7.85898819 L1.02880554,7.85898819 C0.460857813,7.85898819 0,8.34029668 0,8.93484949 L0,13.9241387 C0,14.5180634 0.460257136,15 1.02880554,15 L6.97119446,15 C7.53914219,15 8,14.5186915 8,13.9241387 L8,8.93436629 C8,8.34044164 7.53974286,7.85913315 6.97119446,7.85913315 L6.97105477,7.85898819 Z M2.28300246,5.76193084 C2.28300246,4.77164302 3.05370175,3.96638588 4.00001432,3.96638588 C4.9463269,3.96638588 5.71702619,4.77233559 5.71702619,5.76193084 L5.71702619,7.85898819 L2.28284844,7.85898819 L2.28300246,5.76193084 Z M4.52645373,11.3747 L4.52645373,12.7179442 C4.52645373,13.0218242 4.29121941,13.2678338 4.00001432,13.2678338 C3.70942531,13.2678338 3.47417559,13.0218403 3.47417559,12.7179442 L3.47417559,11.3747 C3.2274976,11.1985279 3.06626976,10.9028299 3.06626976,10.567494 C3.06626976,10.0276708 3.4844025,9.59041345 4.000615,9.59041345 C4.5168275,9.59041345 4.93496024,10.0283151 4.93496024,10.567494 C4.93435864,10.9028299 4.77251564,11.198544 4.52645373,11.3747 L4.52645373,11.3747 Z" id="Shape"></path>
                        </g>
                    </g>
                </g>
            </g>
        </g>
    </g>
</svg>